<svg xmlns="http://www.w3.org/2000/svg" width="32" height="32" viewBox="0 0 32 32">
  <defs>
    <linearGradient id="grad" x1="0%" y1="0%" x2="100%" y2="100%">
      <stop offset="0%" stop-color="#a855f7"/>
      <stop offset="100%" stop-color="#3b82f6"/>
    </linearGradient>
  </defs>
  <!-- CPU Icon -->
  <rect x="6" y="6" width="20" height="20" rx="2" fill="none" stroke="url(#grad)" stroke-width="2"/>
  <rect x="10" y="10" width="12" height="12" rx="1" fill="url(#grad)" opacity="0.3"/>
  <!-- CPU Pins -->
  <line x1="10" y1="2" x2="10" y2="6" stroke="url(#grad)" stroke-width="2" stroke-linecap="round"/>
  <line x1="16" y1="2" x2="16" y2="6" stroke="url(#grad)" stroke-width="2" stroke-linecap="round"/>
  <line x1="22" y1="2" x2="22" y2="6" stroke="url(#grad)" stroke-width="2" stroke-linecap="round"/>
  <line x1="10" y1="26" x2="10" y2="30" stroke="url(#grad)" stroke-width="2" stroke-linecap="round"/>
  <line x1="16" y1="26" x2="16" y2="30" stroke="url(#grad)" stroke-width="2" stroke-linecap="round"/>
  <line x1="22" y1="26" x2="22" y2="30" stroke="url(#grad)" stroke-width="2" stroke-linecap="round"/>
  <line x1="2" y1="10" x2="6" y2="10" stroke="url(#grad)" stroke-width="2" stroke-linecap="round"/>
  <line x1="2" y1="16" x2="6" y2="16" stroke="url(#grad)" stroke-width="2" stroke-linecap="round"/>
  <line x1="2" y1="22" x2="6" y2="22" stroke="url(#grad)" stroke-width="2" stroke-linecap="round"/>
  <line x1="26" y1="10" x2="30" y2="10" stroke="url(#grad)" stroke-width="2" stroke-linecap="round"/>
  <line x1="26" y1="16" x2="30" y2="16" stroke="url(#grad)" stroke-width="2" stroke-linecap="round"/>
  <line x1="26" y1="22" x2="30" y2="22" stroke="url(#grad)" stroke-width="2" stroke-linecap="round"/>
  <!-- Binary overlay (small) -->
  <text x="11" y="19" font-family="monospace" font-size="6" font-weight="bold" fill="url(#grad)">01</text>
</svg>
